<?xml version="1.0" encoding="UTF-8"?>
<!-- Generated by Pixelmator Pro 4.2 -->
<svg width="1226" height="673" viewBox="0 0 1226 673" xmlns="http://www.w3.org/2000/svg">
    <path id="Forma" fill="#23c55e" stroke="none" d="M 1022.30249 662 L 1029.049561 641.200012 L 992.909546 641.200012 L 1016.316284 566.450012 L 994.606201 566.450012 L 964.452393 662 Z M 1114.732422 662 L 1116.026245 566.450012 L 1090.546265 566.450012 L 1031.532349 662 L 1052.852417 662 L 1064.628296 642.76001 L 1093.748291 642.76001 L 1093.412354 662 Z M 1094.533325 594.27002 L 1094.125488 621.959961 L 1077.485474 621.959961 Z M 1153.466309 566.450012 L 1123.312378 662 L 1172.322388 662 C 1181.812378 662 1192.578369 654.719971 1196.167725 643.540039 L 1201.48645 626.77002 C 1203.371216 621.049988 1202.135986 615.330017 1198.243164 612.599976 C 1203.580566 609.869995 1207.520142 604.280029 1209.42981 598.429993 L 1213.731079 584.910034 C 1216.989502 574.77002 1211.576294 566.450012 1201.436279 566.450012 Z M 1186.87793 600.77002 C 1186.496826 602.070007 1185.306274 602.849976 1184.526245 602.849976 L 1163.726196 602.849976 L 1168.559204 587.25 L 1189.359131 587.25 C 1190.39917 587.25 1190.89856 588.030029 1190.517456 589.330017 Z M 1175.831299 639.119995 C 1175.450195 640.419983 1174.259644 641.200012 1173.479614 641.200012 L 1151.769653 641.200012 L 1157.239136 623.650024 L 1178.949097 623.650024 C 1179.989136 623.650024 1180.358521 624.429993 1179.977417 625.72998 Z"/>
    <path id="path1" fill="#23c55e" stroke="none" d="M 723.296326 566.450012 L 693.142456 662 L 714.982483 662 L 725.820984 627.419983 L 737.130981 627.419983 L 739.682434 662 L 760.872437 662 L 758.190979 627.419983 C 766.301208 627.160034 772.752075 620.01001 775.37384 611.820007 L 783.821045 584.910034 C 787.205017 574.119995 782.056335 566.450012 771.656311 566.450012 Z M 759.579163 587.25 C 760.619141 587.25 761.118469 588.030029 760.737427 589.330017 L 755.674072 605.450012 C 755.29303 606.75 753.972412 607.530029 753.322449 607.530029 L 732.002441 607.530029 L 738.38916 587.25 Z M 603.5 643.539063 L 621.96875 584.90625 C 624.236877 577.890015 623.066345 566.450012 609.806335 566.450012 L 560.40625 566.453125 L 530.25 662 L 579.65625 662 C 590.182434 662 600.138855 654.200012 603.5 643.539063 Z M 637.054688 642.757813 L 666.179688 642.757813 L 665.84375 662 L 687.164063 662 L 688.453125 566.453125 L 662.976563 566.453125 L 603.960938 662 L 625.28125 662 Z M 575.5 587.25 L 597.726563 587.25 C 598.769165 587.25 599.138489 588.030029 598.757446 589.330017 L 583.164063 639.117188 C 582.780273 640.419983 581.5896 641.200012 580.809631 641.200012 L 558.710938 641.203125 Z M 666.960938 594.273438 L 666.554688 621.960938 L 649.914063 621.960938 Z M 914.859375 644.84375 L 920.914063 625.601563 C 924.882813 613.119995 917.441406 608.570007 908.458252 606.619995 L 886.273438 601.679688 C 885.282471 601.419983 884.208374 600.25 884.92041 597.910034 L 888 588.03125 C 888.379639 586.72998 889.57019 585.950012 890.35022 585.950012 L 908.289063 585.953125 C 909.3302 585.950012 909.699585 586.72998 909.318604 588.030029 L 906.929688 595.703125 L 928.765625 595.703125 L 932.53125 583.609375 C 935.890869 572.950012 930.507446 565.150024 920.237427 565.150024 L 891.375 565.148438 C 880.847412 565.150024 871.226196 572.559998 867.662109 583.609985 L 861.453125 602.976563 C 858.573853 611.820007 861.918701 618.059998 867.752563 619.48999 L 895.828125 626.25 C 898.066528 626.77002 898.335571 628.070007 897.904053 629.630005 L 894.523438 640.421875 C 894.13916 641.719971 892.948486 642.5 892.168457 642.5 L 872.671875 642.5 C 871.758545 642.5 871.259155 641.719971 871.640259 640.419983 L 874.335938 631.84375 L 852.5 631.84375 L 848.429688 644.84375 C 845.06781 655.5 850.711365 663.299988 860.59137 663.299988 L 891.007813 663.296875 C 901.281494 663.299988 911.497803 655.5 914.859375 644.84375 Z M 834.976563 587.25 L 857.992188 587.25 L 864.609375 566.453125 L 796.875 566.453125 L 790.257813 587.25 L 813.140625 587.25 L 789.601563 662 L 811.445313 662 Z"/>
    <path id="CENTRO-DARTS-LAB" fill="#d5d5d5" stroke="none" d="M 480.132813 644.84375 L 499.5 583.609375 C 503.241943 571.650024 497.477356 565.150024 487.207397 565.150024 L 454.96875 565.148438 C 441.837402 565.150024 434.125 574.119995 431.122192 583.609985 L 411.757813 644.84375 C 408.77887 654.200012 410.791321 663.299988 423.921326 663.299988 L 456.289063 663.296875 C 466.041321 663.299988 476.116089 657.580017 480.132813 644.84375 Z M 315.367188 587.25 L 338.382813 587.25 L 345 566.453125 L 277.265625 566.453125 L 270.648438 587.25 L 293.53125 587.25 L 269.992188 662 L 291.835938 662 Z M 356.492188 627.421875 L 367.804688 627.421875 L 370.351563 662 L 391.539063 662 L 388.859375 627.421875 C 396.971252 627.160034 403.422058 620.01001 406.043884 611.820007 L 414.492188 584.90625 C 417.875 574.119995 412.726318 566.450012 402.326355 566.450012 L 353.96875 566.453125 L 323.8125 662 L 345.65625 662 Z M 434.96875 640.421875 L 451.460938 588.03125 C 451.839539 586.72998 453.160217 585.950012 453.810242 585.950012 L 475.257813 585.953125 C 476.300232 585.950012 476.669617 586.72998 476.288513 588.030029 L 459.796875 640.421875 C 459.41925 641.719971 458.228516 642.5 457.448486 642.5 L 436.125 642.5 C 434.828491 642.5 434.589172 641.719971 434.96875 640.421875 Z M 369.0625 587.25 L 390.25 587.25 C 391.289185 587.25 391.788513 588.030029 391.407471 589.330017 L 386.34375 605.453125 C 385.963013 606.75 384.642456 607.530029 383.992432 607.530029 L 362.671875 607.53125 Z M 77.65625 644.84375 L 83.023438 627.8125 L 61.1875 627.8125 L 57.1875 640.421875 C 56.809174 641.719971 55.618546 642.5 54.838547 642.5 L 35.210938 642.5 C 33.908539 642.5 33.669189 641.719971 34.050262 640.419983 L 50.539063 588.03125 C 50.919571 586.72998 52.240204 585.950012 52.890213 585.950012 L 72.648438 585.953125 C 73.560211 585.950012 74.05957 586.72998 73.678482 588.030029 L 69.679688 600.640625 L 91.523438 600.640625 L 96.890625 583.609375 C 100.301147 572.690002 95.257385 565.150024 84.597366 565.150024 L 53.914063 565.148438 C 42.607376 565.150024 33.230087 573.98999 30.202148 583.609985 L 10.835938 644.84375 C 7.833771 654.330017 11.271805 662.780029 23.001389 663.299988 L 53.679688 663.296875 C 64.861374 663.299988 74.553345 654.849976 77.65625 644.84375 Z M 156.882813 641.203125 L 117.492188 641.203125 L 122.882813 624.039063 L 154.210938 624.039063 L 160.828125 603.242188 L 129.242188 603.242188 L 134.28125 587.25 L 173.671875 587.25 L 180.414063 566.453125 L 119.1875 566.453125 L 89.03125 662 L 150.265625 662 Z M 204.242188 605.96875 L 214.484375 662 L 237.75 662 L 268.164063 566.453125 L 246.328125 566.453125 L 228.078125 623.90625 L 218.375 566.453125 L 194.976563 566.453125 L 164.5625 662 L 186.40625 662 Z"/>
    <path id="path2" fill="#23c55e" fill-rule="evenodd" stroke="none" d="M 600.144531 77.655518 C 599.044556 78.024048 605.344543 74.481567 614.144531 69.783447 C 622.944519 65.085571 628.858398 62.444946 642.9104 56.248657 C 649.808716 53.206787 661.631653 48.976807 668.9104 46.191406 C 676.189209 43.406128 694.294556 37.481934 709.144531 33.026489 C 723.994507 28.571167 741.151123 24.123657 747.144531 22.602051 C 752.515137 21.238525 751.331909 21.669678 764.644531 18.303345 C 768.266907 17.387451 769.779968 16.636108 780 15 C 796.080627 12.425659 794.444519 12.552612 802.144531 11.758545 C 809.844543 10.964478 821.908447 10.066162 828.953247 9.762207 C 836.120056 9.452881 851.977295 9.862915 864.953247 10.692871 C 877.708496 11.508667 891.519531 12.904297 895.644531 13.794067 C 899.769531 14.683838 906.294556 16.533325 910.144531 17.904053 C 913.994507 19.274658 920.440308 21.723022 924.468506 23.344727 C 928.496582 24.966431 934.34668 27.915405 937.468506 29.897949 C 940.590332 31.880615 944.53125 34.66626 946.226074 36.088257 C 947.921021 37.510254 951.858521 41.482422 954.976074 44.915161 C 959.085083 49.439331 960.644531 51.941528 960.644531 54.010132 C 960.644531 55.579712 959.764038 57.660645 958.687744 58.634644 C 957.611572 59.608643 953.899048 61.211914 950.437744 62.197754 C 946.976563 63.183472 940.769531 65.186401 936.644531 66.648804 C 932.168701 68.235474 927.772339 69.15271 925.741455 68.923706 C 923.069336 68.622192 921.136108 67.207642 916.741455 62.338135 C 913.663086 58.927246 908.787842 54.383179 905.907471 52.240234 C 903.026978 50.097412 896.501953 46.303467 891.407471 43.809326 C 886.312866 41.315186 877.419556 37.719727 871.644531 35.81958 C 863.400391 33.106934 856.502625 31.788818 839.539001 29.68457 C 823.171387 27.654297 814.92865 27.103149 805.539001 27.411011 C 798.722046 27.634644 784.369507 28.599854 773.644531 29.556152 C 762.919556 30.512329 746.944519 32.663086 738.144531 34.335449 C 729.344543 36.007935 713.369507 39.571167 702.644531 42.253906 C 691.919556 44.936646 674.594543 50.246826 664.144531 54.054321 C 653.694519 57.861816 635.469543 64.578979 623.644531 68.981323 C 611.819519 73.383667 601.244507 77.287109 600.144531 77.655518 Z"/>
    <path id="path3" fill="#d5d5d5" fill-rule="evenodd" stroke="none" d="M 875.336365 88.692383 C 872.601501 89.127075 871.867004 88.698486 869.353394 85.20166 C 867.777405 83.009155 864.455322 79.973145 861.971008 78.454834 C 859.486633 76.936646 855.203979 74.199585 852.453979 72.372559 C 849.703979 70.545532 843.628967 67.887695 838.953979 66.466431 C 834.278992 65.045044 827.979004 63.256348 824.953979 62.491577 C 821.928955 61.726685 814.729004 60.621582 808.953979 60.035645 C 803.178955 59.449707 790.57666 58.684937 780.948792 58.336182 C 767.449829 57.847168 766.914001 57.687866 748.948792 59.418091 C 738.926392 60.383301 727.521545 62.172852 719 64 C 711.562927 65.594604 702.733398 67.404297 693.933411 69.285767 C 685.133423 71.167236 674.104004 74.210083 672.453979 74.496704 C 670.803955 74.783325 673.953979 73.182373 679.453979 70.938965 C 684.987854 68.681763 697.046448 65.10022 706.453979 62.919434 C 715.803955 60.752075 730.025024 57.356934 738 56 C 745.974976 54.643066 736.164917 55.888306 755 53 C 778.635315 49.37561 776.057678 49.597046 786.800293 48.675781 C 795.836731 47.900879 800.918823 47.231812 813.372192 47.445679 C 830.445923 47.738892 820.24646 47.602661 827.761841 47.971191 C 836.378784 48.393799 837.227356 48.750977 852.698303 51.031616 C 857.596191 51.753662 864.50592 54.016846 868.236023 55.112183 C 871.966187 56.20752 876.557983 58.441284 878.720154 59.616089 C 885.471191 63.284302 881.792908 61.090576 885.93811 63.7854 C 887.730347 64.950562 891.591431 67.663086 894.203979 70.377319 C 896.84729 73.123535 898.953979 76.259277 898.953979 77.447754 C 898.953979 79.041504 897.494995 80.326294 893.203979 82.51123 C 890.041504 84.121582 885.428955 86.059692 882.953979 86.817993 C 880.479004 87.576294 877.051025 88.4198 875.336365 88.692383 Z"/>
    <path id="path4" fill="#23c55e" fill-rule="evenodd" stroke="none" d="M 550 500 C 542.707703 500.163025 505.142151 498.832153 496.744202 497.869629 C 490.419189 497.144714 479.394226 495.810303 472.244202 494.904297 C 465.094177 493.998291 454.256348 492.391357 448.160095 491.333313 C 442.063843 490.275269 431.263855 487.565369 424.160095 485.31134 C 417.056335 483.057251 406.403564 478.929871 400.487244 476.139282 C 394.570923 473.348755 389.918762 470.877075 390.14917 470.646729 C 390.379517 470.416321 395.498657 471.821838 401.524963 473.77002 C 407.55127 475.718201 418.503418 478.921387 425.863037 480.888306 C 435.850037 483.557312 443.429504 484.831482 455.744202 485.911499 C 465.783936 486.791992 495.233826 488.001343 503 488 C 524.291809 487.996338 538.523621 486.85144 546.996216 485.883057 C 554.009888 485.081482 565.934875 483.739868 573.496216 482.901672 C 581.057617 482.063538 591.744202 480.722168 597.244202 479.920898 C 602.744202 479.119568 613.994202 477.085266 622.244202 475.400208 C 630.494202 473.715149 641.856079 470.995422 647.492737 469.356445 C 653.129395 467.717529 662.129395 465.073547 667.492737 463.480957 C 672.856079 461.888367 684.894165 457.795349 694.244202 454.385254 C 703.594238 450.97522 713.494202 447.157104 716.244202 445.900635 C 718.994202 444.644104 723.944214 442.499817 727.244202 441.135559 C 730.544189 439.77124 738.644165 436.085022 745.244202 432.943909 C 751.844238 429.802856 760.169189 425.529968 763.744202 423.44873 C 767.319214 421.367432 774.026123 417.464111 778.64856 414.77478 C 783.270935 412.085388 788.707642 408.969482 790.730164 407.850525 C 792.752686 406.731506 795.720703 404.793274 797.325806 403.543274 C 798.930908 402.293274 802.087341 400.058777 804.340088 398.577759 C 806.592834 397.096741 810.851196 393.859985 813.803223 391.38501 C 816.755127 388.909973 823.855103 382.38501 829.580811 376.88501 C 835.306641 371.38501 843.679016 361.934998 848.186218 355.88501 C 852.69342 349.835022 857.342163 342.512146 858.516846 339.612 C 859.691406 336.711853 861.417969 330.186829 862.353638 325.112 C 863.76709 317.445435 863.397339 316.215515 862.917236 309.219971 C 862.662598 305.509949 860.842407 300.049805 859.696899 296.988037 C 858.220703 293.042603 856.021118 289.900879 852.145203 286.20166 C 849.137329 283.330994 844.329102 279.329041 841.460266 277.308472 C 838.591431 275.287842 832.994019 272.21759 829.021484 270.485657 C 825.049072 268.753723 816.863342 266.222534 810.831055 264.86084 C 802.291931 262.933228 796.805359 262.358826 786.053711 262.266724 C 778.458496 262.20166 770.894165 261.859741 769.244202 261.506836 C 767.55481 261.14563 766.244202 260.220215 766.244202 259.388672 C 766.244202 258.576477 767.594238 257.296509 769.244202 256.544312 C 770.894165 255.792114 778.544189 252.056274 786.244202 248.242432 C 793.944214 244.428589 804.294189 239.130005 809.244202 236.467773 C 814.194214 233.805603 822.069214 229.587524 826.744202 227.094299 C 831.419189 224.601074 839.069214 220.045776 843.744202 216.971436 C 848.419189 213.897034 854.628906 209.694946 857.543579 207.633301 C 860.458252 205.571777 866.267334 200.960022 870.452637 197.38501 C 874.637939 193.809998 882.382813 187.042114 887.66333 182.345154 C 897.264526 173.805298 897.264526 173.805298 913.254395 168.536011 C 922.048828 165.637939 930.819214 162.603577 932.744141 161.79303 C 934.669189 160.982483 937.594238 160.221619 939.244141 160.102173 C 941.697144 159.924622 942.244141 160.269287 942.244141 161.99231 C 942.244141 163.151367 939.769287 167.15918 936.744141 170.89856 C 933.719238 174.637939 933.172241 175.668762 923.79541 185.791199 C 916.183716 194.008179 914.073486 195.950806 911.29541 198.475647 C 908.517212 201.000488 903.932617 204.8255 901.107422 206.975647 C 898.282104 209.125793 891.75708 214.293518 886.607422 218.459473 C 881.457642 222.625427 873.018555 228.700439 867.853821 231.959473 C 862.689087 235.218506 857.289063 238.275146 855.853821 238.752075 C 854.418518 239.228943 852.439209 240.383972 851.455261 241.318787 C 850.423584 242.29895 849.929321 243.703918 850.28772 244.637756 C 850.629456 245.528381 853.459473 247.139343 856.57666 248.217712 C 859.693787 249.296021 866.069214 252.017761 870.744202 254.265991 C 875.419189 256.514221 881.152527 259.598267 883.484863 261.119385 C 885.817383 262.640503 890.586548 266.359985 894.083252 269.38501 C 897.579956 272.410034 901.496094 276.684998 902.785889 278.88501 C 904.075684 281.085022 905.878296 284.460022 906.791748 286.38501 C 907.7052 288.309998 909.239014 293.035034 910.200195 296.88501 C 911.456055 301.915161 911.825439 306.417664 911.512695 312.88501 C 911.238159 318.564148 910.101318 325.175293 908.431885 330.802063 C 906.976563 335.706421 904.089111 342.995239 902.015137 346.999451 C 899.941162 351.003601 895.5625 358.015991 892.28479 362.582397 C 889.00708 367.148865 880.907104 376.292114 874.28479 382.900818 C 867.662476 389.509583 857.969238 398.106567 852.744202 402.00531 C 847.519165 405.904053 839.194214 411.795166 834.244202 415.096619 C 829.294189 418.398132 820.969238 423.598022 815.744202 426.651978 C 810.519165 429.705933 801.742188 434.607727 796.239807 437.544861 C 790.737427 440.481934 782.412415 444.73999 777.739807 447.007202 C 773.067261 449.274414 762.269165 453.879761 753.744202 457.241333 C 745.219238 460.602905 733.294189 465.189697 727.244202 467.434143 C 721.194214 469.678589 711.519165 472.792114 705.744202 474.353027 C 699.969238 475.91394 689.844238 478.75769 683.244202 480.672424 C 676.644165 482.587158 666.069214 485.338318 659.744202 486.786072 C 653.419189 488.233887 638.794189 491.028809 627.244202 492.99707 C 615.694214 494.965332 598.155762 497.156677 598.155762 497.156677 C 598.155762 497.156677 554.191223 499.906311 550 500 Z"/>
    <path id="path5" fill="#d5d5d5" fill-rule="evenodd" stroke="none" d="M 551.144531 463.311218 C 523.038879 465.063354 506.649658 463.474976 486.966125 461.578735 C 477.632629 460.679565 463.659607 459.112305 455.951599 457.669373 C 447.813904 456.145996 437.330444 453.343872 430.951599 450.987061 C 424.909607 448.7547 421.203369 447.170349 422.715576 447.466309 C 424.227783 447.762268 427.377808 448.457581 429.715576 449.011475 C 432.053406 449.565369 442.516113 451.107056 452.966125 452.4375 C 463.416138 453.767883 480.734558 455.593445 491.466125 455.544556 C 510.601501 455.457336 511.27301 455.559143 525.466125 454.546448 C 533.474487 453.975037 549.145813 452.751343 559.084412 451.726746 C 569.022949 450.702148 581.983887 447.883118 586.714966 447.116943 C 594.813293 445.80542 591.526062 446.331421 601.257141 444.031982 C 609.880798 441.994202 606.778809 442.736755 615.966125 440.108398 C 628.88208 436.41333 625.172913 437.522827 634.966125 434.622314 C 646.869873 431.09668 648.016113 430.004456 652.966125 428.493591 C 657.916138 426.982727 666.466125 423.974121 671.966125 421.8078 C 677.466125 419.641418 685.791138 416.26886 690.466125 414.313232 C 695.141113 412.357544 704.816162 407.973206 711.966125 404.570313 C 719.116089 401.167358 729.916138 395.535828 735.966125 392.055725 C 742.016113 388.575684 751.241089 382.789917 756.466125 379.198486 C 761.691162 375.607056 769.341125 370.150818 773.466125 367.073425 C 777.591125 363.996094 784.116089 358.079041 787.966125 353.9245 C 791.816162 349.769958 796.766113 344.040588 798.966125 341.192688 C 801.166138 338.344727 804.048828 333.423828 805.37207 330.257324 C 807.072937 326.187256 807.916504 321.898254 808.250488 315.622253 C 808.594482 309.158691 808.266418 305.102295 807.044067 300.705688 C 806.120605 297.384338 805.491333 295.53479 802.698792 291.166504 C 800.484985 287.703552 802.81189 291.268433 800 288 C 797.585449 285.19342 800.67395 288.501099 796.433105 284.463745 C 795.088196 283.18335 794.704651 281.36145 795.367554 280.698608 C 795.958008 280.108093 799.214844 279.940369 803.353394 280.287354 C 807.956299 280.673218 812.838257 281.953796 817.654114 284.038452 C 822.687256 286.217163 826.794556 288.963989 830.832703 292.851807 C 834.059326 295.958313 837.52417 300.31366 838.532349 302.530396 C 839.540527 304.747131 840.645508 309.472107 840.987915 313.030396 C 841.3302 316.588684 841.153748 322.594482 840.595703 326.376587 C 839.780945 331.898804 838.208984 336.622437 833.991638 343.547424 C 831.103149 348.290344 827.41864 352.75 825.390991 355.5 C 823.363281 358.25 819.963135 362.177917 817.835205 364.228699 C 815.707214 366.27948 811.716125 369.985168 808.966125 372.463562 C 806.216125 374.942017 800.345276 379.570251 795.060242 383.569031 C 784.428528 391.61322 787.871399 388.522461 781.026611 392.988953 C 775.46405 396.618713 772.26123 398.427368 768.845581 400.057556 C 765.42981 401.687744 765.998718 401.711304 756.300659 406.796326 C 747.953857 411.172852 746.816162 412.095337 742.966125 413.958313 C 739.116089 415.821228 738.725525 415.925171 728.966125 420.212402 C 718.685913 424.728394 718.282471 424.894714 713.780151 427.113342 C 709.277954 429.33197 703.427917 431.759949 700.780151 432.508789 C 698.132446 433.257629 690.590942 435.733765 684.021301 438.011292 C 677.45166 440.288818 666.876709 443.518127 660.521301 445.1875 C 654.165955 446.856873 644.916138 449.269836 639.966125 450.549561 C 635.016113 451.829285 624.666138 454.040344 616.966125 455.462952 C 609.266113 456.885498 597.155457 459.232788 589.966125 459.994446 C 568.821289 462.234558 570.714661 462.091187 551.144531 463.311218 Z"/>
    <path id="path6" fill="#23c55e" fill-rule="evenodd" stroke="none" d="M 237.106384 431.444397 C 233.834808 432.864807 232.416718 433.193726 233.606384 432.256287 C 234.70639 431.389435 237.856384 429.208801 240.606384 427.410339 C 243.356384 425.611938 252.464417 420.466553 260.846497 415.976227 C 269.228546 411.485901 282.728546 404.054352 290.846497 399.4617 C 298.964417 394.869049 311.906372 388.041168 319.606384 384.288635 C 327.306396 380.536133 337.881378 375.454834 343.106384 372.996887 C 348.33139 370.53894 356.549011 366.7995 361.367737 364.687012 C 366.186523 362.574524 374.511475 358.969696 379.867737 356.676239 C 385.223999 354.382813 391.856384 351.486633 394.606384 350.240295 C 397.356384 348.993988 403.206421 346.562744 407.606384 344.837585 C 412.006348 343.112366 418.981384 340.174561 423.106384 338.309082 C 427.231384 336.443604 434.881348 333.144653 440.106384 330.978088 C 445.331421 328.811523 455.456421 324.714417 462.606384 321.873352 C 469.756348 319.032288 480.331421 315.085724 486.106384 313.10318 C 491.881348 311.120636 500.206421 308.041107 504.606384 306.259766 C 509.006348 304.478455 516.206421 301.789734 520.606384 300.284912 C 525.006348 298.78006 530.293884 297.319458 532.356384 297.039124 C 535.940674 296.551971 536.106201 296.656769 536.102661 299.411133 C 536.100586 300.996033 534.773804 303.61734 534.04541 305.661102 C 530.029175 316.929626 533.999084 304.968323 532 313 C 530.993225 317.044861 529.330933 320.395782 528.718994 321.140656 C 528.107056 321.885498 522.881348 323.938873 517.106384 325.703674 C 511.331421 327.468506 501.431396 330.504517 495.106384 332.450378 C 488.781372 334.396271 479.106384 337.550537 473.606384 339.459869 C 468.106384 341.369202 459.331421 344.211243 454.106384 345.775513 C 448.881348 347.339752 435.831421 351.853943 425.106384 355.807068 C 414.381348 359.760162 399.810669 364.949829 392.726929 367.33963 C 385.643311 369.729431 377.543274 372.763214 374.726929 374.08136 C 371.910645 375.399506 364.656372 378.295593 358.606384 380.51709 C 352.556396 382.738586 343.106384 386.364624 337.606384 388.574951 C 332.106384 390.785278 317.031372 396.872437 304.106384 402.101929 C 291.181396 407.331421 272.056396 415.535522 261.606384 420.333313 C 251.156372 425.131073 240.131378 430.131073 237.106384 431.444397 Z"/>
    <path id="path7" fill="#d5d5d5" fill-rule="evenodd" stroke="none" d="M 196.800415 360.447968 C 187.469025 365.245117 182.934143 367.172638 184.800415 365.548462 C 186.450409 364.112488 190.050415 361.200745 192.800415 359.077911 C 195.550415 356.955078 204.100403 351.425201 211.800415 346.789246 C 219.500427 342.15332 231.19165 335.466003 237.780945 331.928558 C 244.37027 328.391113 251.401917 323.880554 253.780945 322.460815 C 262.232666 317.417023 262.043427 317.253174 265.800415 315.057709 C 270.12851 312.528503 276.500427 309.020264 279.800415 306.978699 C 283.100403 304.937134 289.293274 301.416046 293.562317 299.154053 C 297.83136 296.892029 304.356354 293.389191 308.062317 291.369934 C 311.76825 289.350677 323.800415 283.185791 334.800415 277.670227 C 345.800415 272.154663 362.900421 263.833191 372.800415 259.178101 C 382.700439 254.52301 396.425415 248.342834 403.300415 245.444336 C 410.175415 242.545898 420.075439 238.302979 425.300415 236.015625 C 430.525391 233.728333 439.300415 230.072205 444.800415 227.89093 C 450.300415 225.709717 458.850403 222.288391 463.800415 220.288025 C 468.750427 218.287659 476.850403 215.099121 481.800415 213.202393 C 486.750427 211.305664 492.390991 209.53717 494.335022 209.272522 C 497.287842 208.870483 499.427612 209.706238 507.335022 214.35022 C 512.541016 217.407593 517.387939 220.419983 518.106079 221.044434 C 518.824219 221.668823 519.26825 222.925415 519.092773 223.836731 C 518.917236 224.748047 516.979614 226.345825 514.786987 227.387329 C 512.59436 228.428833 508.775391 229.829712 506.300415 230.500488 C 503.825439 231.171265 498.200439 233.09375 493.800415 234.772583 C 489.400391 236.451416 481.525391 239.191772 476.300415 240.862183 C 471.075439 242.532654 461.175415 245.920898 454.300415 248.391602 C 447.425415 250.862305 435.275391 255.33252 427.300415 258.325378 C 419.325439 261.318237 404.925415 266.804077 395.300415 270.516174 C 385.675415 274.228271 375.374817 278.102783 372.410217 279.12616 C 369.445618 280.149567 364.720642 282.086334 361.910217 283.430084 C 359.099823 284.773834 351.400421 288.100891 344.800415 290.823547 C 338.200409 293.546204 326.950409 298.351166 319.800415 301.501251 C 312.650421 304.651306 302.075409 309.225586 296.300415 311.66629 C 290.525421 314.106995 283.100403 317.380035 279.800415 318.939697 C 276.500427 320.499359 270.425415 323.328735 266.300415 325.227234 C 262.175415 327.125702 254.075409 330.934479 248.300415 333.691162 C 242.525421 336.447845 231.950409 341.860809 224.800415 345.719971 C 217.650421 349.579132 205.050415 356.206726 196.800415 360.447968 Z"/>
    <path id="path8" fill="#d5d5d5" fill-rule="evenodd" stroke="none" d="M 565.568665 220.124512 C 564.430908 220.348816 562.256042 220.149109 560.735596 219.680725 C 559.21521 219.212341 554.265198 216.397217 549.735596 213.424927 C 545.206055 210.452637 536.775024 205.150208 531 201.641663 C 525.224976 198.133179 515.775024 192.187378 510 188.428894 C 503.858887 184.432068 499.5 180.928223 499.5 179.988464 C 499.5 179.104797 500.174988 178.006897 501 177.548706 C 501.825012 177.090515 508.575012 174.694092 516 172.223267 C 523.424988 169.752441 536.025024 165.281189 544 162.287231 C 551.974976 159.293213 566.375 154.062378 576 150.663147 C 585.625 147.263977 598 142.864685 603.5 140.887024 C 611.642761 137.959106 615.264404 137.217285 623 136.892883 C 632.5 136.494446 632.5 136.494446 657 144.972778 C 670.474976 149.635864 688.924988 156.086487 698 159.307495 C 711.219727 163.999573 714.5 165.528992 714.5 167.000732 C 714.5 168.469727 711.642822 169.813782 700.236328 173.71051 C 692.391296 176.390564 678.108276 181.31427 668.496216 184.6521 C 658.884216 187.98999 642.690613 193.633667 632.510376 197.193726 C 622.3302 200.753723 603.569153 207.277832 590.819153 211.69165 C 578.069153 216.105469 566.706421 219.900269 565.568665 220.124512 Z"/>
    <path id="path9" fill="#d5d5d5" fill-rule="evenodd" stroke="none" d="M 853.760437 138.619446 C 856.034424 138.374268 864.419922 135.687683 872.394897 132.649353 C 880.369873 129.611023 894.652466 124.356567 904.133911 120.972839 C 913.615356 117.589111 929.590332 111.863586 939.633911 108.249451 C 949.67749 104.635376 963.519897 99.65918 970.394897 97.191406 C 977.269897 94.723572 988.878174 90.616089 996.191162 88.063599 C 1009.472046 83.428101 1009.487061 83.419312 1009.191162 80.433716 C 1008.989868 78.402832 1008.025146 76.95874 1006.181641 75.928833 C 1003.64563 74.512146 1002.828613 74.634827 993.681641 77.805847 C 988.29895 79.671875 979.619873 82.86377 974.394897 84.898987 C 969.169922 86.934204 958.144897 90.979736 949.894897 93.88916 C 941.644897 96.798645 928.144897 101.788025 919.894897 104.976746 C 911.644897 108.165466 899.494873 112.886841 892.894897 115.468689 C 886.294922 118.050537 878.146362 121.194153 874.786987 122.454529 C 871.427612 123.714844 866.485352 126.137329 863.804077 127.837708 C 861.122864 129.538086 856.896423 131.885864 854.411987 133.054871 C 851.927612 134.223938 849.506592 135.524109 849.032043 135.944214 C 848.557434 136.364258 848.496948 137.238403 848.897583 137.886597 C 849.346069 138.612244 851.21521 138.893921 853.760437 138.619446 Z M 599.087646 297.280121 C 601.118652 296.899109 604.156189 295.788574 605.837646 294.812286 C 607.519165 293.835999 611.5896 292.264282 614.883118 291.319519 C 618.176575 290.374817 622.451599 288.796997 624.383118 287.813293 C 626.314575 286.829559 631.269897 284.849121 635.394897 283.412262 C 639.519897 281.975403 645.665527 279.909668 649.051819 278.821716 C 653.48938 277.395996 656.586182 275.522583 660.141235 272.112946 C 662.854126 269.511047 667.733521 264.023438 670.984314 259.918213 C 674.235168 255.812988 677.724731 252.219727 679 250 C 680.275269 247.780212 682.483337 244.649963 684 243 C 685.516724 241.350037 688.767334 235.925903 690.869324 232.923706 C 692.971375 229.921509 694.913879 226.613647 695.186035 225.572876 C 695.537903 224.227295 695.225159 223.781921 694.10376 224.031372 C 693.236267 224.224365 688.445557 228.657227 683.457642 233.882263 C 678.469727 239.1073 672.154358 246.687439 668.641785 249.971985 C 661.749207 256.417114 665.315247 252.863708 658.894897 259.454468 C 657.000366 261.399292 653.509338 263.725769 651.815857 265.410522 C 650.122375 267.095276 646.297363 269.383301 643.315857 270.494995 C 640.334351 271.60675 631.144897 276.042664 622.894897 280.352661 C 614.644897 284.662659 605.095764 289.58252 601.674622 291.285645 C 597.552673 293.337646 595.444275 294.987885 595.424622 296.177582 C 595.399292 297.708282 595.939148 297.870789 599.087646 297.280121 Z M 78.394913 483.452087 C 72.894913 487.345703 72.894913 487.345703 75.394913 484.113007 C 76.769913 482.335022 82.169907 477.244293 87.394913 472.800232 C 92.619919 468.356201 103.135727 459.919128 110.763397 454.051208 C 118.391083 448.183289 119.610016 446.706085 126 442 C 133.494385 436.48056 127.324219 441.276154 136.394897 434.34082 C 143.421661 428.968231 137.460754 433.055573 145 428 C 153.473267 422.318115 149.905273 425.495026 151.819244 423.814545 C 153.733215 422.134064 157.233215 419.750092 159.597046 418.516846 C 161.960876 417.283569 157.108917 420.003357 167 414 C 177.329865 407.730316 173.779663 409.796051 177.30542 407.520203 C 180.831238 405.244324 186.681213 401.649597 190.30542 399.531921 C 193.929657 397.414246 191.089935 399.098053 201 393 C 211.182068 386.734558 199.099701 394.011688 208 389 C 219.608551 382.463318 218.269897 383.167755 222.394897 380.671478 C 226.519897 378.175171 233.71991 374.080414 238.394897 371.572021 C 243.069916 369.063599 249.819916 365.433289 253.394897 363.504639 C 256.96991 361.575989 263.269897 358.353668 267.394897 356.343933 C 271.519897 354.334167 276.46991 351.870483 278.394897 350.869049 C 280.319916 349.867615 287.96991 345.973389 295.394897 342.21524 C 302.819916 338.457123 311.144897 334.473389 313.894897 333.362579 C 316.644897 332.25174 322.944916 329.409454 327.894897 327.046356 C 332.84491 324.683258 341.84491 320.578308 347.894897 317.924255 C 353.944885 315.270203 362.71991 311.418213 367.394897 309.364319 C 372.069885 307.310394 380.619934 303.696777 386.394897 301.334015 C 392.169922 298.971252 399.819885 295.697693 403.394897 294.059448 C 406.96991 292.421204 415.744934 288.80603 422.894897 286.025757 C 430.044922 283.245453 441.519897 278.863708 448.394897 276.288483 C 455.269897 273.713287 465.619934 269.830078 471.394897 267.659119 C 477.169922 265.488159 484.924133 262.602173 488.626526 261.245911 C 492.328979 259.889587 498.853943 257.484009 503.126526 255.900208 C 507.39917 254.316406 515.84491 251.18811 521.894897 248.948425 C 527.944885 246.708801 541.21991 241.907471 551.394897 238.27887 C 561.569885 234.650269 576.644897 229.318298 584.894897 226.430176 C 593.144897 223.541992 605.744873 219.022156 612.894897 216.386108 C 620.044922 213.75 630.726624 209.843018 636.63208 207.703918 C 642.537537 205.564758 652.887573 201.759644 659.63208 199.248047 C 666.376648 196.736511 677.069885 192.930847 683.394897 190.791016 C 689.71991 188.651184 700.744873 184.838745 707.894897 182.31897 C 715.044922 179.799133 726.744873 175.771973 733.894897 173.369751 C 741.044922 170.967529 754.623413 166.295776 764.069397 162.988159 C 773.515381 159.68042 785.215332 154.846558 790.069397 152.246155 C 794.923401 149.645752 801.944153 146.047852 805 144 C 808.055786 141.952087 811.601257 139.405029 813.549927 138.59082 C 815.498535 137.776672 816.755554 136.674438 821 134 C 830.215759 128.193054 829.737366 128.842041 833 127 C 838.064514 124.140686 832.827087 127.091309 838 124 C 839.566711 123.063721 844.59491 119.99353 847.894897 118.428223 C 851.194885 116.862915 855.46991 114.550049 857.394897 113.288513 C 859.319885 112.026978 866.96991 108.532715 874.394897 105.523438 C 881.819885 102.51416 893.969971 97.820984 901.394897 95.094116 C 908.819946 92.36731 924.907715 86.704834 937.145508 82.510925 C 949.383301 78.317017 970.139526 71.189331 983.270386 66.671631 C 1007.144775 58.457642 1007.144775 58.457642 1014.748657 60.250244 C 1018.930664 61.236145 1023.918091 63.105347 1025.831787 64.403931 C 1027.745361 65.702637 1030.925171 67.210815 1032.897949 67.755493 C 1035.51709 68.478638 1037.824829 68.371765 1041.451538 67.359192 C 1044.183228 66.596558 1068.780151 60.105347 1096.111328 52.934326 C 1123.442505 45.763306 1147.39978 39.669312 1149.349609 39.39209 C 1152.181152 38.989624 1151.284424 39.672791 1144.894897 42.785889 C 1140.494873 44.929565 1120.244873 53.763184 1099.894897 62.415955 C 1079.544922 71.068787 1059.519897 79.370605 1055.394897 80.864563 C 1051.269897 82.358521 1046.098389 84.438049 1043.902588 85.48584 C 1041.078125 86.833557 1038.957153 88.985596 1036.652588 92.842285 C 1034.86084 95.840637 1033.720703 99.592529 1033.394897 101.102722 C 1032.690918 104.366333 1032.234497 105.123779 1030.144897 107.306396 C 1028.357422 109.173584 1022.619873 112.740112 1017.394897 115.232117 C 1012.169922 117.724121 988.544922 126.315857 964.894897 134.32489 C 941.244873 142.333923 910.869873 152.463257 897.394897 156.834473 C 883.919922 161.205688 869.364624 165.29126 865.049805 165.913452 C 860.734985 166.535645 854.884949 167.706604 852.049805 168.515686 C 849.2146 169.324707 841.044922 170.649048 833.894897 171.458557 C 826.744873 172.268066 816.619873 173.795471 811.394897 174.852722 C 806.169922 175.910034 792.894897 179.904724 781.894897 183.729858 C 770.894897 187.555054 757.056274 192.416626 751.142456 194.533447 C 744.032959 197.078308 739.289734 199.430664 737.142456 201.476624 C 735.356323 203.178528 732.12561 207.00354 729.963074 209.976624 C 727.800598 212.949707 724.914612 217.407227 723.549805 219.882263 C 722.184998 222.3573 719.555054 226.272339 717.705444 228.58252 C 715.855835 230.892639 712.848083 235.392639 711.021545 238.58252 C 709.195007 241.772339 705.269287 247.895203 702.297729 252.188782 C 699.326172 256.482361 694.869873 263.248901 692.394897 267.225586 C 689.919922 271.202271 685.652649 277.229004 682.91217 280.618347 C 678.920471 285.555115 676.07312 287.79715 668.595886 291.891235 C 663.462402 294.701996 652.314392 299.442078 643.822571 302.424744 C 635.330688 305.40741 620.732544 310.546661 611.382141 313.845306 C 602.031799 317.143921 585.272034 323.071228 574.138245 327.017029 C 563.004395 330.96286 552.994934 334.234253 551.894897 334.286774 C 550.293396 334.363251 549.918945 333.784576 550.015503 331.382263 C 550.081848 329.732269 552.646545 321.736176 555.714844 313.613159 C 558.783142 305.490173 564.309631 290.722137 567.995911 280.795319 C 571.68219 270.86853 574.90741 261.6521 575.163147 260.314392 C 575.562073 258.227356 575.24762 257.882263 572.946899 257.882263 C 571.472229 257.882263 568.157227 258.736816 565.580322 259.78125 C 563.003357 260.825623 556.394897 263.287231 550.894897 265.251465 C 545.394897 267.215698 535.494934 270.604614 528.894897 272.782349 C 522.294922 274.960083 511.37561 278.779663 504.629761 281.270294 C 497.883911 283.760925 486.633911 287.866089 479.629761 290.392883 C 472.62561 292.919678 465.461304 295.645874 463.709106 296.451111 C 461.956909 297.256348 454.419189 300.157104 446.958618 302.897247 C 439.497986 305.63736 426.306641 310.520569 417.644409 313.748779 C 408.982178 316.97699 395.144897 322.188599 386.894897 325.330078 C 378.644897 328.471588 367.84491 332.755127 362.894897 334.849091 C 357.944885 336.943024 348.944885 340.770172 342.894897 343.353821 C 336.84491 345.937469 328.744934 349.5159 324.894897 351.305878 C 321.044922 353.095856 310.694916 357.618927 301.894897 361.357117 C 293.09491 365.095337 281.169922 370.493103 275.394897 373.352173 C 269.619934 376.211212 257.723938 382.11261 248.959412 386.46637 C 240.194885 390.820099 229.619873 395.871216 225.459412 397.691071 C 221.29895 399.510925 215.869934 402.100494 213.394897 403.445679 C 210.919922 404.790863 204.273132 408.251892 198.624298 411.136871 C 192.975433 414.02182 185.421295 417.841583 181.83728 419.625214 C 178.253296 421.408813 179.856201 420.580505 169.60791 426.615265 C 159.81369 432.382629 168.506836 427.491058 160.321686 431.872314 C 152.225433 436.205994 153.445587 435.407257 149.408752 437.882263 C 145.371887 440.357269 146.820953 439.079407 140 443 C 132.845703 447.112183 139.345459 443.289337 134.394897 446.353424 C 128.519928 449.989655 128.460266 450.397034 124.26239 452.623871 C 120.064484 454.850739 112.41449 459.503601 107.262375 462.963562 C 102.110275 466.423523 94.744919 471.572815 90.894913 474.406433 C 87.044907 477.240051 81.419907 481.310608 78.394913 483.452087 Z"/>
</svg>
